#!OML:ASF F:\VICON\USERDATA\INSTALL\rory3\rory3.ASF
:FULLY-SPECIFIED
:DEGREES
1733
root -1.18156 20.8887 4.84156 -328.555 -95.0436 329.114
lowerback 8.0452 -1.61851 -5.01514
upperback -4.1772 -2.67548 1.42357
thorax -8.67342 -0.972608 4.74914
lowerneck -15.3714 -2.5464 -17.5698
upperneck -12.6539 -0.966876 12.5568
head -1.15768 -0.123735 6.8053
rclavicle 3.47873e-015 -4.77083e-015
rhumerus 92.8954 -30.181 -36.6969
rradius 28.547
rwrist 19.5379
rhand -30.3801 -4.43477
rfingers 7.12502
rthumb -3.68451 -34.3827
lclavicle 3.47873e-015 -4.77083e-015
lhumerus 84.9833 31.689 43.3986
lradius 27.1344
lwrist 29.3182
lhand 0.923309 34.773
lfingers 7.12502
lthumb 26.4744 62.9436
rfemur -17.1811 6.48265 9.55085
rtibia 38.1824
rfoot -1.82143 -19.1988
rtoes 21.7971
lfemur -4.99138 5.31644 -16.5386
ltibia 26.7736
lfoot 20.2916 -2.78888
ltoes -11.8328
1734
root -1.15451 21.0017 4.87781 -331.112 -95.4472 331.51
lowerback 8.55896 -1.54018 -5.11746
upperback -4.13657 -2.61468 1.31946
thorax -8.93907 -0.929276 4.71014
lowerneck -15.6871 -2.73135 -17.8778
upperneck -12.4348 -1.10576 12.9347
head -1.01407 -0.176223 6.97139
rclavicle 2.1916e-014 1.11319e-014
rhumerus 93.6019 -30.9731 -37.2685
rradius 28.0484
rwrist 19.9455
rhand -30.6864 -4.13853
rfingers 7.12502
rthumb -3.98029 -34.0811
lclavicle 2.1916e-014 1.11319e-014
lhumerus 87.3106 31.8343 45.9003
lradius 26.2934
lwrist 29.1107
lhand 1.62307 34.4213
lfingers 7.12502
lthumb 27.1441 62.4893
rfemur -16.8103 6.34806 9.62819
rtibia 38.4977
rfoot -1.37717 -18.778
rtoes 20.9457
lfemur -5.09708 5.55495 -16.2947
ltibia 27.5722
lfoot 20.1107 -2.97103
ltoes -11.6603
1735
root -1.13206 21.1019 4.91232 -334.905 -95.8776 335.172
lowerback 8.95955 -1.45324 -5.11323
upperback -4.06911 -2.52162 1.23786
thorax -9.11528 -0.880139 4.62259
lowerneck -16.1247 -2.97827 -18.0113
upperneck -12.1115 -1.34117 13.2199
head -0.808883 -0.281085 7.0701
rclavicle -3.55328e-015 -7.15625e-015
rhumerus 94.2181 -31.7566 -37.7333
rradius 27.7023
rwrist 20.2433
rhand -30.8426 -4.13961
rfingers 7.12502
rthumb -4.13112 -34.0793
lclavicle -3.55328e-015 -7.15625e-015
lhumerus 89.7013 31.8123 48.3933
lradius 25.5099
lwrist 28.4786
lhand 2.00907 34.25
lfingers 7.12502
lthumb 27.5133 62.2598
rfemur -16.4252 6.37528 9.8901
rtibia 38.7546
rfoot -0.565802 -18.2653
rtoes 18.7661
lfemur -5.19905 5.95506 -15.8642
ltibia 28.3674
lfoot 20.0545 -3.41687
ltoes -11.7861
1736
root -1.11512 21.1876 4.94793 -337.593 -96.298 337.819
lowerback 9.19278 -1.37209 -5.04041
upperback -4.09159 -2.43244 1.04877
thorax -9.29784 -0.84024 4.3753
lowerneck -16.1662 -3.08505 -17.5623
upperneck -12.0421 -1.56018 13.001
head -0.756159 -0.408897 6.90867
rclavicle 2.11706e-014 -3.18055e-015
rhumerus 94.5221 -32.4379 -38.0583
rradius 27.4768
rwrist 20.6933
rhand -30.7072 -4.18276
rfingers 7.12502
rthumb -4.00039 -34.1249
lclavicle 2.11706e-014 -3.18055e-015
lhumerus 90.9891 31.6481 49.5157
lradius 25.4852
lwrist 29.0343
lhand 0.548212 34.4305
lfingers 7.12502
lthumb 26.1154 62.6547
rfemur -16.0697 6.37434 10.1153
rtibia 38.9004
rfoot 0.781677 -17.6659
rtoes 16.4481
lfemur -5.38822 6.39875 -15.5022
ltibia 29.1268
lfoot 19.9786 -4.32709
ltoes -12.9079
1737
root -1.10093 21.2607 4.98628 -339.866 -96.6295 340.165
lowerback 9.32851 -1.34041 -4.94284
upperback -4.23233 -2.40512 0.883634
thorax -9.54608 -0.82815 4.14847
lowerneck -15.677 -2.94741 -16.7846
upperneck -12.2741 -1.59843 12.2681
head -0.916186 -0.469291 6.53997
rclavicle -3.68497e-014 7.15625e-015
rhumerus 94.8354 -32.834 -38.4655
rradius 27.2121
rwrist 21.3211
rhand -30.7142 -4.06719
rfingers 7.12502
rthumb -4.0072 -34.0093
lclavicle -3.68497e-014 7.15625e-015
lhumerus 90.7084 31.6558 48.715
lradius 26.3247
lwrist 31.5493
lhand -2.61666 35.3135
lfingers 7.12502
lthumb 23.0818 63.951
rfemur -15.8007 6.19644 10.3507
rtibia 38.9232
rfoot 2.34687 -17.0725
rtoes 15.6753
lfemur -5.67971 6.65634 -15.0875
ltibia 29.7828
lfoot 19.9207 -4.73335
ltoes -11.6491
1738
root -1.09021 21.3254 5.02739 -341.702 -97.0025 342.106
lowerback 9.37419 -1.35084 -4.8617
upperback -4.3696 -2.42685 0.778495
thorax -9.72959 -0.839828 3.9993
lowerneck -15.0078 -2.76184 -16.2678
upperneck -12.7516 -1.54836 11.7259
head -1.18134 -0.478598 6.28984
rclavicle 6.93262e-015 -8.74653e-015
rhumerus 95.6695 -32.82 -39.4773
rradius 26.8336
rwrist 22.3099
rhand -30.778 -3.75845
rfingers 7.12502
rthumb -4.06876 -33.6993
lclavicle 6.93262e-015 -8.74653e-015
lhumerus 91.1533 31.7821 49.0045
lradius 26.336
lwrist 30.7125
lhand -1.3654 34.8289
lfingers 7.12502
lthumb 24.2819 63.3111
rfemur -15.5427 5.91545 10.4839
rtibia 38.7653
rfoot 4.0712 -16.588
rtoes 16.1311
lfemur -5.98656 6.86621 -14.7265
ltibia 30.3204
lfoot 20.1326 -5.45615
ltoes -11.4618
1739
root -1.08082 21.3795 5.07089 -342.452 -97.4699 342.969
lowerback 9.33795 -1.36073 -4.84624
upperback -4.42965 -2.45293 0.634308
thorax -9.77857 -0.857017 3.83996
lowerneck -14.9735 -2.74576 -16.1209
upperneck -12.7715 -1.55857 11.6922
head -1.19186 -0.492223 6.2543
rclavicle 2.61526e-014 4.77083e-015
rhumerus 96.3513 -32.9306 -40.2387
rradius 26.6522
rwrist 22.8891
rhand -30.8151 -3.33468
rfingers 7.12502
rthumb -4.10457 -33.2749
lclavicle 2.61526e-014 4.77083e-015
lhumerus 91.3157 31.9912 48.5694
lradius 26.5674
lwrist 31.1298
lhand -1.99602 35.0623
lfingers 7.12502
lthumb 23.6772 63.6241
rfemur -15.2887 5.82584 10.4506
rtibia 38.425
rfoot 5.87285 -16.3098
rtoes 16.1251
lfemur -6.26804 7.00282 -14.5414
ltibia 30.6935
lfoot 20.5217 -5.85054
ltoes -11.6537
